<?xml version="1.0" standalone="no"?><!DOCTYPE svg PUBLIC "-//W3C//DTD SVG 1.1//EN" "http://www.w3.org/Graphics/SVG/1.1/DTD/svg11.dtd"><svg t="1770349025247" class="icon" viewBox="0 0 1024 1024" version="1.1" xmlns="http://www.w3.org/2000/svg" p-id="2058" xmlns:xlink="http://www.w3.org/1999/xlink" width="48" height="48"><path d="M694.857143 292.571429a73.142857 73.142857 0 0 1 73.142857 73.142857v438.857143a73.142857 73.142857 0 0 1-73.142857 73.142857h-512a73.142857 73.142857 0 0 1-73.142857-73.142857V365.714286a73.142857 73.142857 0 0 1 73.142857-73.142857h512z m-512 73.142857v438.857143h512V365.714286h-512z" fill="" p-id="2059"></path><path d="M365.714286 219.428571h438.857143a36.571429 36.571429 0 0 1 36.571428 36.571429v365.714286a36.571429 36.571429 0 1 0 73.142857 0v-365.714286A109.714286 109.714286 0 0 0 804.571429 146.285714H365.714286a36.571429 36.571429 0 0 0 0 73.142857z" fill="" p-id="2060"></path></svg>